<?xml version="1.0" encoding="UTF-8" standalone="no"?> <svg xmlns="http://www.w3.org/2000/svg" xmlns:xlink="http://www.w3.org/1999/xlink" viewBox="0 0 64 64"><defs><style>.cls-1{fill:url(#linear-gradient);}</style><linearGradient id="linear-gradient" x1="14.49" y1="32" x2="49.5" y2="32" gradientUnits="userSpaceOnUse"><stop offset="0" stop-color="#17a6d7"/><stop offset="1" stop-color="#9d31fe"/></linearGradient></defs><g id="Layer_60" data-name="Layer 60"><path class="cls-1" d="M49.24,3.15A1.52,1.52,0,0,0,48,2.5H25a1.51,1.51,0,0,0-1.4,1l-9,23A1.51,1.51,0,0,0,16,28.5h5.15L14.53,59.69A1.51,1.51,0,0,0,17.11,61l30-33A1.51,1.51,0,0,0,46,25.5H41.2L49.4,4.55A1.51,1.51,0,0,0,49.24,3.15ZM37.62,26.42h0a1.5,1.5,0,0,0,.86,2,35,35,0,0,0,4.13.1l-24,26.39,5.85-27.58a1.65,1.65,0,0,0-.08-.88A1.54,1.54,0,0,0,23,25.5H18.2L26,5.5H45.8Z"/></g></svg>