<?xml version="1.0" encoding="UTF-8" standalone="no"?> <svg xmlns="http://www.w3.org/2000/svg" viewBox="0 0 24 24"><defs><style>.cls-1{fill:#3fa9f5;}</style></defs><title>Aim, archery, focus, goal, success, target</title><g id="_01" data-name="01"><circle class="cls-1" cx="11" cy="12" r="7"/><path d="M12,21A9,9,0,1,1,15.36,3.65a1,1,0,0,1-.75,1.85A7,7,0,1,0,19,12a6.84,6.84,0,0,0-.52-2.65,1,1,0,1,1,1.85-.76A8.82,8.82,0,0,1,21,12,9,9,0,0,1,12,21Z"/><path d="M12,17a5,5,0,1,1,5-5A5,5,0,0,1,12,17Zm0-8a3,3,0,1,0,3,3A3,3,0,0,0,12,9Z"/><path d="M12,14a2,2,0,1,1,2-2A2,2,0,0,1,12,14Zm0-2Z"/><path d="M12,13a1,1,0,0,1-.71-.29,1,1,0,0,1,0-1.42l7-7a1,1,0,1,1,1.42,1.42l-7,7A1,1,0,0,1,12,13Z"/><path d="M21,6H19a1,1,0,0,1-1-1V3a1,1,0,0,1,2,0V4h1a1,1,0,0,1,0,2Z"/></g></svg>